<?xml version="1.0" standalone="no"?>
<!DOCTYPE svg PUBLIC "-//W3C//DTD SVG 20010904//EN"
 "http://www.w3.org/TR/2001/REC-SVG-20010904/DTD/svg10.dtd">
<svg version="1.0" xmlns="http://www.w3.org/2000/svg"
 width="1000.000000pt" height="1000.000000pt" viewBox="0 0 1000.000000 1000.000000"
 preserveAspectRatio="xMidYMid meet">
<metadata>
Created by potrace 1.16, written by Peter Selinger 2001-2019
</metadata>
<g transform="translate(0.000000,1000.000000) scale(0.100000,-0.100000)"
fill="#000000" stroke="none">
<path d="M4550 9984 c-1006 -91 -1941 -475 -2733 -1121 -170 -138 -542 -510
-680 -680 -651 -798 -1032 -1733 -1122 -2750 -19 -218 -19 -648 0 -866 90
-1017 471 -1952 1122 -2750 138 -170 510 -542 680 -680 798 -651 1733 -1032
2750 -1122 218 -19 648 -19 866 0 1017 90 1952 471 2750 1122 170 138 542 510
680 680 651 798 1032 1733 1122 2750 19 218 19 648 0 866 -90 1017 -471 1952
-1122 2750 -138 170 -510 542 -680 680 -798 651 -1733 1032 -2750 1122 -207
18 -679 18 -883 -1z m-1170 -4534 l0 -2910 2405 0 2405 0 0 -515 0 -515 -2999
0 c-1649 0 -3019 3 -3045 6 l-46 7 0 3418 0 3419 640 0 640 0 0 -2910z m4870
2450 l0 -450 -905 0 -905 0 0 -805 0 -805 910 0 910 0 0 -680 0 -680 -910 0
-910 0 0 -965 0 -965 -610 0 -610 0 0 2900 0 2900 1515 0 1515 0 0 -450z"/>
</g>
</svg>
