<svg id="svg" version="1.1" xmlns="http://www.w3.org/2000/svg" xmlns:xlink="http://www.w3.org/1999/xlink" width="400" height="400" viewBox="0, 0, 400,400"><g id="svgg"><path id="path0" d="M208.800 182.000 L 208.800 298.000 233.200 298.000 L 257.600 298.000 257.600 259.400 L 257.600 220.800 294.000 220.800 L 330.400 220.800 330.400 193.600 L 330.400 166.400 294.000 166.400 L 257.600 166.400 257.600 134.200 L 257.600 102.000 293.800 102.000 L 330.000 102.000 330.000 84.000 L 330.000 66.000 269.400 66.000 L 208.800 66.000 208.800 182.000 " stroke="none" fill="#fbfbfb" fill-rule="evenodd"></path><path id="path1" d="M84.000 202.346 L 84.000 339.091 85.856 339.346 C 86.877 339.486,141.687 339.600,207.656 339.600 L 327.600 339.600 327.600 319.000 L 327.600 298.400 231.400 298.400 L 135.200 298.400 135.200 182.000 L 135.200 65.600 109.600 65.600 L 84.000 65.600 84.000 202.346 " stroke="none" fill="#fcac04" fill-rule="evenodd"></path><path id="path2" d="M186.600 0.241 C 185.720 0.326,182.930 0.587,180.400 0.822 C 62.709 11.756,-19.662 123.786,4.016 240.719 C 25.810 348.350,132.021 417.988,240.800 395.968 C 348.277 374.211,417.978 267.902,395.984 159.281 C 378.878 74.802,309.066 11.422,221.600 0.964 C 216.506 0.355,190.921 -0.173,186.600 0.241 M135.200 182.000 L 135.200 298.400 231.400 298.400 L 327.600 298.400 327.600 319.000 L 327.600 339.600 207.656 339.600 C 141.687 339.600,86.877 339.486,85.856 339.346 L 84.000 339.091 84.000 202.346 L 84.000 65.600 109.600 65.600 L 135.200 65.600 135.200 182.000 M330.000 84.000 L 330.000 102.000 293.800 102.000 L 257.600 102.000 257.600 134.200 L 257.600 166.400 294.000 166.400 L 330.400 166.400 330.400 193.600 L 330.400 220.800 294.000 220.800 L 257.600 220.800 257.600 259.400 L 257.600 298.000 233.200 298.000 L 208.800 298.000 208.800 182.000 L 208.800 66.000 269.400 66.000 L 330.000 66.000 330.000 84.000 " stroke="none" fill="#3c3c3c" fill-rule="evenodd"></path><path id="path3" d="" stroke="none" fill="#464646" fill-rule="evenodd"></path><path id="path4" d="" stroke="none" fill="#9c9c9c" fill-rule="evenodd"></path></g></svg>